# xmcd
#
# Track frame offsets:
#	150
#	15637
#	36149
#	52686
#	68248
#	87335
#	111522
#	125359
#	140621
#	156483
#	175945
#	197282
#	213969
#	227131
#	240293
#	258705
#	274192
#	294104
#
# Disc length: 4121 seconds
#
# Revision: 2
# Processed by: cddbd v1.5.2PL0 Copyright (c) Steve Scherf et al.
# Submitted via: audiograbber 1.83.01
#
DISCID=fb101712
DTITLE=Various Artist - March 2011
DYEAR=2011
DGENRE=Country
TTITLE0=David Adam Byrnes - Sweet Distraction
TTITLE1=Zac Brown Band - Colder Weather (Album Version)
TTITLE2=Dirt Drifters - Something Better
TTITLE3=Joanna Smith - Georgia Mud
TTITLE4=David Bradley - Hard Time Movin' On
TTITLE5=Jamey Johnson - Heartache (Album Version)
TTITLE6=Jenny and Ashley - Indescribable
TTITLE7=Jacob Lyda - I'm Doing Alright
TTITLE8=Reba McEntire - If I Were A Boy
TTITLE9=Aaron Lewis - Country Boy (Smoke Free Radio Edit)
TTITLE10=Aaron Lewis (feat) George Jones, Chris Young and Charlie Daniels - Count
TTITLE10=ry Boy (Smoke Free Album Vers
TTITLE11=David Nail - Let It Rain 
TTITLE12=The Grascals (feat) Dolly Parton - I Am Strong
TTITLE13=The Grascals and Friends - I Am Strong
TTITLE14=Jeff Bates - One Day Closer
TTITLE15=Carter's Chord - A Little Less Comfortable
TTITLE16=Carrie Elkin - Jesse Likes Birds
TTITLE17=Darius Rucker - Together Anything's Possible
EXTD=
EXTT0=
EXTT1=
EXTT2=
EXTT3=
EXTT4=
EXTT5=
EXTT6=
EXTT7=
EXTT8=
EXTT9=
EXTT10=
EXTT11=
EXTT12=
EXTT13=
EXTT14=
EXTT15=
EXTT16=
EXTT17=
PLAYORDER=
